<?xml version="1.0" standalone="no"?>
<!DOCTYPE svg PUBLIC "-//W3C//DTD SVG 20010904//EN"
 "http://www.w3.org/TR/2001/REC-SVG-20010904/DTD/svg10.dtd">
<svg version="1.0" xmlns="http://www.w3.org/2000/svg"
 width="494.000000pt" height="500.000000pt" viewBox="0 0 494.000000 500.000000"
 preserveAspectRatio="xMidYMid meet">

<g transform="translate(0.000000,500.000000) scale(0.100000,-0.100000)"
fill="#000000" stroke="none">
<path d="M2865 4031 c-48 -22 -195 -158 -266 -247 l-50 -64 -57 37 c-116 74
-121 77 -147 65 -17 -8 -26 -23 -31 -49 -12 -66 -16 -67 -73 -18 -30 26 -75
57 -101 70 -41 21 -52 23 -84 13 -36 -11 -36 -11 -35 -67 0 -31 4 -80 8 -109
8 -57 5 -68 -15 -51 -27 23 -127 79 -140 79 -7 0 -16 5 -19 10 -17 28 -281
135 -360 145 -35 5 -119 27 -137 36 -27 13 -114 22 -152 15 -34 -7 -36 -9 -36
-48 0 -91 87 -333 206 -572 41 -82 82 -159 93 -170 10 -12 30 -42 45 -68 25
-42 26 -52 19 -105 l-8 -58 -147 4 c-139 3 -255 -8 -303 -29 -18 -8 -67 -26
-172 -62 -18 -6 -33 -15 -33 -20 0 -5 14 -27 32 -49 l32 -40 -37 -30 c-20 -17
-37 -37 -37 -45 0 -7 25 -30 55 -50 30 -20 55 -40 55 -43 0 -4 -7 -17 -16 -29
-24 -34 -4 -48 76 -56 86 -9 172 -33 275 -79 44 -20 107 -45 140 -58 33 -12
61 -23 63 -24 1 -1 10 -51 18 -111 9 -60 18 -123 21 -140 8 -50 -23 -58 -229
-60 -181 -1 -208 -6 -208 -41 0 -25 91 -108 161 -147 83 -45 344 -136 414
-143 48 -5 57 -10 90 -50 l37 -45 -26 -92 c-14 -50 -26 -99 -26 -109 0 -24
-46 -105 -92 -160 -39 -46 -39 -49 -23 -68 20 -21 77 -26 133 -10 18 6 39 8
47 5 7 -3 26 -34 40 -69 15 -35 34 -66 42 -70 19 -7 132 46 157 74 11 11 24
21 31 21 7 0 50 -23 96 -50 46 -28 95 -53 108 -57 29 -7 41 11 58 90 8 37 25
77 49 110 20 28 45 70 55 93 l19 41 107 6 c60 3 117 7 128 10 11 3 43 8 70 11
47 7 52 5 80 -24 17 -17 55 -45 85 -62 30 -17 62 -37 70 -43 8 -7 27 -15 41
-18 22 -6 33 1 72 46 l46 53 78 -8 c43 -5 89 -6 102 -3 21 5 23 10 18 51 l-5
46 44 18 c54 23 56 41 10 94 -19 21 -44 63 -55 92 l-20 54 20 35 c12 19 24 35
29 35 13 0 66 112 83 175 33 123 48 249 46 367 -2 64 -1 119 1 121 7 6 86 55
123 76 18 10 82 50 144 89 61 39 146 89 190 111 98 52 126 73 118 91 -3 8 -28
32 -56 53 -27 21 -49 46 -49 55 0 9 7 42 16 72 24 85 24 84 -21 90 l-40 5 1
45 c0 34 -5 49 -20 62 -19 15 -24 15 -56 1 -19 -8 -51 -19 -70 -25 -19 -5 -95
-28 -168 -50 -192 -60 -195 -49 -35 129 53 60 102 122 110 138 7 17 22 44 33
60 11 17 22 37 25 45 4 8 15 33 25 55 71 147 107 264 113 362 7 106 5 107
-112 94 -92 -10 -258 -67 -319 -109 -15 -10 -34 -21 -43 -25 -9 -3 -70 -37
-135 -77 -140 -84 -162 -84 -133 -1 19 55 3 62 -125 50 -59 -6 -110 -8 -113
-5 -3 2 2 40 11 83 14 73 15 210 1 234 -9 14 -35 11 -80 -10z"/>
</g>
</svg>
