<?xml version="1.0" standalone="no"?>
<!DOCTYPE svg PUBLIC "-//W3C//DTD SVG 20010904//EN"
 "http://www.w3.org/TR/2001/REC-SVG-20010904/DTD/svg10.dtd">
<svg version="1.0" xmlns="http://www.w3.org/2000/svg"
 width="495.000000pt" height="500.000000pt" viewBox="0 0 495.000000 500.000000"
 preserveAspectRatio="xMidYMid meet">

<g transform="translate(0.000000,500.000000) scale(0.100000,-0.100000)"
fill="#000000" stroke="none">
<path d="M2764 4011 c-84 -56 -274 -256 -274 -290 0 -21 19 -10 62 36 24 25
58 61 76 79 17 18 32 37 32 43 0 6 4 11 8 11 5 0 29 20 54 45 25 24 57 49 72
55 25 9 26 8 26 -23 0 -63 -28 -218 -44 -242 -9 -13 -16 -27 -16 -30 0 -11 24
-4 42 12 17 15 18 15 18 -1 0 -9 -12 -21 -27 -27 -20 -7 -24 -12 -14 -22 9 -9
21 -6 55 12 34 17 62 23 120 24 42 1 76 0 76 -2 0 -8 -71 -100 -80 -103 -18
-6 21 -50 57 -65 32 -13 37 -12 66 6 18 12 47 28 65 36 29 14 119 78 132 94 3
3 36 22 73 41 207 106 274 136 283 127 4 -4 15 -2 26 4 22 12 31 14 106 24 28
4 52 5 52 3 0 -1 -12 -34 -26 -73 -14 -38 -28 -81 -31 -95 -3 -14 -12 -32 -19
-40 -7 -9 -36 -64 -63 -123 -28 -58 -69 -137 -92 -173 -33 -52 -44 -79 -47
-121 -4 -42 -8 -53 -19 -49 -8 3 -17 6 -19 6 -3 0 0 9 6 21 27 50 -7 21 -125
-104 l-19 -21 -6 20 c-6 23 -77 90 -87 81 -6 -7 54 -87 77 -102 8 -5 26 -10
40 -10 30 0 33 -23 7 -39 -16 -9 -22 -7 -34 12 -20 29 -33 28 -33 -3 0 -23 -1
-23 -40 15 -47 46 -139 110 -219 152 -31 16 -63 35 -71 42 -20 17 -47 26 -54
19 -8 -9 44 -63 61 -63 7 0 13 -4 13 -10 0 -5 3 -9 8 -8 6 2 32 -11 117 -57
12 -7 19 -19 17 -31 -2 -13 0 -15 6 -7 19 28 170 -102 157 -135 -3 -7 -1 -11
4 -7 35 21 4 -226 -40 -319 -28 -61 -115 -157 -135 -149 -7 3 -14 0 -14 -7 0
-6 4 -9 9 -6 5 3 12 -1 15 -10 5 -12 17 -7 68 28 33 24 63 51 66 61 2 9 9 17
14 17 21 0 71 166 83 280 4 36 8 66 9 67 2 2 23 5 49 7 25 3 56 10 68 17 13 6
45 17 73 24 28 7 96 26 151 43 55 17 101 29 103 27 2 -2 -1 -20 -8 -40 -18
-54 -9 -65 50 -61 27 2 50 1 50 -3 0 -6 -19 -35 -54 -85 l-19 -27 34 -35 c19
-19 49 -44 67 -55 17 -12 32 -24 31 -27 0 -4 -33 -23 -72 -42 -40 -19 -85 -44
-102 -55 -40 -27 -64 -41 -100 -61 -16 -9 -70 -45 -120 -79 -87 -60 -180 -113
-238 -134 -38 -15 -24 -35 18 -28 l33 5 7 -93 c4 -56 3 -108 -3 -127 -6 -18
-13 -60 -16 -92 -9 -82 -50 -197 -98 -270 -37 -57 -182 -206 -201 -206 -5 0
-26 -14 -47 -30 -61 -48 -125 -73 -310 -119 -112 -29 -350 -34 -500 -12 -47 7
-98 15 -115 17 -59 7 -180 63 -253 116 -65 47 -152 128 -152 142 0 5 -7 14
-15 20 -27 21 -135 232 -156 306 -7 25 -16 50 -20 55 -5 7 -39 213 -39 238 0
2 14 2 31 -1 21 -3 34 1 44 14 23 30 13 38 -51 39 -72 2 -95 7 -176 44 -35 16
-75 32 -89 36 -13 4 -37 13 -54 20 -58 26 -122 44 -182 50 -82 10 -89 15 -74
56 6 18 10 33 9 34 -2 0 -24 12 -51 26 -26 13 -47 27 -47 31 0 4 16 20 35 35
39 31 44 49 16 58 -17 5 -58 54 -49 59 35 21 101 46 120 46 14 0 31 6 37 14
15 18 86 27 255 32 88 3 143 0 151 -6 7 -6 18 -9 25 -8 7 2 20 -24 31 -67 37
-135 101 -233 190 -293 26 -17 49 -39 53 -48 5 -12 9 -14 20 -5 7 6 22 8 32 4
17 -6 17 -5 5 11 -8 9 -20 15 -27 12 -7 -3 -16 4 -19 15 -4 10 -10 19 -14 19
-16 0 -79 66 -120 124 -50 72 -78 158 -81 246 -3 83 -2 92 9 86 13 -8 102 97
91 108 -10 10 -80 -43 -80 -61 0 -7 -4 -13 -10 -13 -6 0 -7 20 -5 48 8 70 16
102 25 102 13 0 120 105 120 118 0 7 -16 28 -35 48 -40 40 -50 90 -15 79 14
-5 20 -2 20 9 0 10 9 16 25 16 16 0 25 6 25 16 0 12 10 7 38 -17 l38 -34 -36
-20 c-19 -11 -36 -28 -38 -38 -5 -23 10 -21 39 6 14 12 37 23 52 23 15 1 44
17 66 35 45 40 91 76 111 89 10 6 12 12 4 20 -12 12 -107 -34 -150 -73 -27
-26 -28 -26 -46 -7 -31 33 -84 70 -101 70 -12 0 -17 -8 -17 -26 0 -14 -4 -23
-9 -19 -5 3 -16 -4 -24 -15 -8 -12 -21 -18 -29 -15 -11 4 -17 -3 -22 -26 -6
-29 -1 -38 34 -74 l41 -41 -52 -55 c-73 -76 -79 -84 -79 -97 0 -18 -18 -14
-38 6 -20 22 -33 45 -120 217 -36 72 -69 132 -73 135 -4 3 -19 41 -34 85 -14
44 -30 89 -35 100 -17 37 -41 110 -42 125 0 8 -5 21 -10 27 -6 7 -8 19 -5 27
6 15 26 10 89 -25 27 -14 51 -11 44 6 -6 16 35 32 53 20 16 -9 13 -32 -4 -39
-19 -7 -20 -26 -1 -26 17 0 179 -61 186 -70 8 -10 54 -40 62 -40 20 0 5 33
-22 48 -36 21 -37 25 -6 42 36 19 56 7 56 -33 0 -31 32 -77 54 -77 14 0 135
-60 141 -70 3 -5 10 -10 16 -10 14 0 11 26 -5 39 -8 7 -12 21 -9 32 4 15 2 18
-11 13 -18 -7 -23 20 -6 31 6 3 10 1 10 -4 0 -6 5 -11 10 -11 20 0 70 -44 70
-61 0 -9 -7 -22 -15 -29 -27 -23 -17 -32 28 -25 23 4 54 7 69 7 35 1 59 47 48
92 -5 17 -11 57 -14 89 -5 50 -4 57 11 57 19 -1 157 -125 165 -149 2 -9 9 -11
17 -7 7 5 10 14 7 22 -5 13 -1 15 22 14 4 -1 6 -10 4 -20 -5 -31 15 -23 27 10
5 17 14 30 19 30 5 0 9 20 9 44 1 46 17 86 33 86 6 0 10 -8 10 -18 0 -22 98
-122 119 -122 19 1 51 23 51 36 0 17 -135 115 -176 128 -34 10 -55 -15 -62
-74 l-7 -54 -57 51 c-93 85 -168 112 -213 79 -18 -13 -18 -20 -8 -117 11 -104
5 -140 -17 -100 -6 12 -15 19 -21 16 -5 -4 -9 -2 -9 3 0 12 -49 34 -61 27 -5
-4 -9 1 -9 9 0 15 -11 20 -37 17 -6 -1 -17 7 -25 17 -25 36 -266 136 -353 147
-11 2 -38 7 -60 13 -170 45 -194 49 -242 36 -19 -5 -23 -13 -23 -49 0 -45 40
-182 97 -330 42 -109 176 -381 202 -410 10 -11 30 -41 45 -67 24 -41 27 -54
22 -109 -3 -34 -7 -63 -8 -64 -2 0 -70 2 -153 5 -155 7 -258 -2 -310 -24 -16
-8 -47 -19 -68 -26 -22 -7 -51 -18 -65 -26 -15 -8 -35 -14 -44 -14 -26 0 -22
-16 14 -61 l31 -39 -39 -34 c-47 -41 -42 -56 29 -93 51 -27 55 -37 31 -72 -24
-34 -3 -48 82 -55 86 -7 167 -31 301 -90 56 -24 115 -47 132 -51 17 -4 33 -10
36 -15 3 -5 12 -55 20 -112 8 -57 19 -119 25 -138 13 -45 13 -53 -2 -47 -7 2
-32 -4 -54 -14 -31 -13 -60 -16 -115 -13 -278 16 -319 -5 -211 -104 63 -58
152 -107 259 -142 48 -16 114 -38 146 -50 32 -11 84 -23 115 -26 31 -4 59 -11
61 -16 2 -5 17 -25 33 -44 l31 -35 -27 -92 c-14 -51 -26 -100 -26 -108 0 -16
-47 -120 -59 -129 -3 -3 -21 -22 -39 -44 -32 -36 -32 -39 -16 -57 19 -22 101
-27 135 -8 31 16 55 2 74 -44 32 -76 38 -87 56 -92 9 -3 32 3 51 15 18 11 39
20 46 20 8 0 27 13 44 30 16 16 35 30 43 30 7 0 43 -18 79 -40 37 -23 82 -48
101 -57 32 -15 36 -15 54 1 11 10 21 37 25 69 6 39 21 73 62 136 35 55 52 91
48 103 -5 16 2 18 68 20 110 2 130 4 164 12 17 4 55 9 85 11 50 5 56 3 89 -28
19 -19 58 -46 85 -62 28 -15 57 -33 65 -40 8 -7 26 -15 40 -18 21 -6 33 2 75
48 l50 55 74 -11 c41 -6 85 -8 98 -4 23 5 25 10 21 57 -3 51 -2 52 28 58 65
14 69 30 20 89 -19 23 -40 58 -47 79 -6 20 -16 43 -21 49 -12 15 16 81 37 89
8 3 17 18 20 33 3 16 14 37 25 48 19 21 48 120 76 263 16 80 15 230 -1 295 -5
20 17 38 135 103 25 14 58 36 74 49 15 13 42 30 60 38 31 15 45 23 100 59 16
11 52 31 80 45 28 13 53 27 56 30 3 4 22 15 43 26 21 11 41 23 43 27 8 13 -7
33 -42 58 -20 13 -50 37 -67 53 -26 24 -29 30 -16 37 9 5 22 28 29 52 7 24 18
48 23 55 17 23 -3 34 -50 27 l-46 -7 7 39 c4 22 9 46 12 55 2 9 -5 21 -20 28
-20 11 -32 11 -73 -4 -26 -9 -56 -21 -65 -26 -10 -5 -26 -9 -37 -9 -10 0 -76
-19 -145 -41 -70 -23 -129 -39 -132 -36 -14 13 14 53 110 162 57 63 111 130
121 148 29 56 42 78 54 90 6 6 11 16 11 23 0 7 20 55 45 108 25 53 45 103 45
111 0 7 8 33 18 57 24 55 36 213 17 228 -16 13 -174 -3 -234 -24 -66 -24 -164
-68 -181 -82 -8 -6 -49 -29 -90 -50 -41 -20 -77 -41 -80 -44 -3 -4 -21 -16
-40 -26 -19 -11 -57 -34 -83 -53 -50 -34 -65 -36 -48 -4 14 27 31 105 24 116
-3 6 -54 7 -125 2 l-120 -7 7 49 c4 26 11 62 16 78 9 30 4 178 -6 196 -12 19
-54 8 -111 -30z m83 -138 c-3 -10 -5 -4 -5 12 0 17 2 24 5 18 2 -7 2 -21 0
-30z m-1657 -13 c0 -5 -11 -9 -25 -8 -14 1 -25 6 -25 10 0 4 11 8 25 8 14 0
25 -4 25 -10z m83 -10 c8 0 7 -4 -1 -12 -9 -9 -16 -8 -30 6 -16 18 -16 19 1
12 10 -3 24 -6 30 -6z m117 -40 c0 -5 -4 -10 -10 -10 -5 0 -10 5 -10 10 0 6 5
10 10 10 6 0 10 -4 10 -10z m670 -20 c12 -23 -2 -27 -20 -6 -6 8 -21 17 -33
19 -15 3 -12 5 10 6 23 1 35 -5 43 -19z m-600 -25 c0 -29 2 -28 -39 -14 -46
16 -38 36 17 38 17 1 22 -5 22 -24z m68 9 l23 -7 -22 -23 c-30 -32 -39 -30
-39 6 0 32 2 33 38 24z m592 -15 c0 -6 -4 -7 -10 -4 -5 3 -10 11 -10 16 0 6 5
7 10 4 6 -3 10 -11 10 -16z m30 -56 c0 -13 -3 -13 -15 -3 -8 7 -12 16 -9 21 8
13 24 1 24 -18z m-485 -2 c0 -23 -22 -24 -28 -1 -4 16 -1 20 11 18 9 -2 17
-10 17 -17z m535 -11 c0 -5 -4 -10 -10 -10 -5 0 -10 5 -10 10 0 6 5 10 10 10
6 0 10 -4 10 -10z m1581 -26 c-9 -28 -9 -29 -10 -3 -1 14 2 29 6 32 11 12 13
2 4 -29z m-2041 -19 c0 -24 -1 -25 -32 -12 -46 19 -48 37 -4 37 32 0 36 -3 36
-25z m1300 -44 c0 -12 -20 -36 -20 -24 0 6 -3 19 -6 27 -5 12 -2 15 10 10 9
-3 16 -9 16 -13z m696 -28 c-10 -26 -18 -8 -9 23 5 21 8 24 11 11 2 -10 1 -25
-2 -34z m-736 -4 c0 -6 -4 -7 -10 -4 -5 3 -10 11 -10 16 0 6 5 7 10 4 6 -3 10
-11 10 -16z m-1080 1 c0 -5 -4 -10 -10 -10 -5 0 -10 5 -10 10 0 6 5 10 10 10
6 0 10 -4 10 -10z m1799 -74 c-7 -19 -16 -33 -19 -31 -10 6 1 59 14 67 17 11
19 2 5 -36z m-58 -79 c-17 -17 -24 -1 -9 22 11 18 14 19 16 5 2 -9 -1 -21 -7
-27z m-7 -35 c2 -4 -2 -18 -10 -32 l-13 -25 -1 33 c0 29 12 43 24 24z m-48
-89 c-3 -3 -13 -3 -22 1 -15 6 -15 8 2 27 l19 21 3 -22 c2 -12 1 -24 -2 -27z
m-16 -32 c0 -5 -7 -14 -15 -21 -13 -10 -15 -9 -15 9 0 12 6 21 15 21 8 0 15
-4 15 -9z m-95 -97 c14 -6 14 -8 -1 -25 -19 -21 -37 -8 -27 18 6 15 6 15 28 7z
m-56 -78 c-6 -6 -13 -6 -21 2 -8 8 -8 15 2 28 13 15 15 14 21 -3 4 -10 3 -22
-2 -27z m-1925 -1183 c18 -48 27 -68 85 -175 l31 -58 -34 0 c-19 0 -54 8 -78
18 -24 10 -81 31 -128 47 -120 40 -183 73 -243 128 l-52 48 135 -5 c110 -5
146 -2 193 11 31 10 57 21 57 25 0 4 4 8 9 8 4 0 16 -21 25 -47z m1747 -385
c7 -18 26 -46 41 -61 15 -16 28 -35 28 -43 0 -15 -1 -15 -36 -19 -37 -4 -44
-15 -44 -67 0 -48 -1 -50 -25 -44 -13 3 -52 9 -85 13 l-61 6 -45 -51 -45 -52
-27 19 c-15 11 -53 35 -84 55 -72 45 -77 76 -10 67 8 -1 20 3 28 10 9 7 27 14
41 15 14 2 29 7 32 12 3 5 30 17 60 27 30 10 64 28 76 41 12 13 27 24 33 24 6
0 16 9 22 20 6 11 17 20 24 20 7 0 21 9 31 20 24 27 30 25 46 -12z m-1439 -46
c5 -12 95 -72 108 -72 6 0 22 -7 35 -16 13 -9 30 -17 37 -18 16 -4 44 -14 83
-31 37 -17 251 -49 265 -40 5 3 10 3 10 0 0 -10 -70 -127 -89 -150 -17 -21
-34 -66 -46 -122 -4 -18 -11 -33 -17 -33 -5 0 -28 15 -51 33 -48 38 -108 67
-138 67 -22 0 -75 -24 -99 -45 -8 -8 -27 -17 -42 -20 -23 -6 -29 -3 -37 16 -5
13 -19 34 -30 46 -12 12 -21 30 -21 39 0 15 -8 16 -70 10 -50 -4 -70 -3 -70 6
0 6 18 35 39 63 38 51 49 77 88 213 15 55 35 78 45 54z"/>
<path d="M2537 3562 c-47 -6 -25 -23 33 -26 135 -7 311 -53 385 -101 102 -66
135 -85 145 -85 16 0 12 -15 -10 -35 -25 -23 -26 -45 -2 -45 13 0 18 -7 18
-22 -1 -14 6 -24 18 -26 11 -2 28 -14 37 -26 16 -19 18 -19 19 -3 0 10 -10 28
-22 41 -56 58 -55 71 11 154 39 48 46 51 54 21 5 -18 11 -21 35 -16 27 5 29 4
24 -19 -3 -17 0 -24 12 -24 23 0 20 -11 -16 -54 -18 -22 -34 -48 -35 -58 -2
-10 -10 -30 -19 -44 -9 -13 -14 -27 -10 -31 11 -12 46 30 52 64 3 18 12 37 19
41 19 11 66 92 60 102 -4 6 -13 10 -21 10 -8 0 -12 5 -9 10 13 20 -15 40 -41
30 -20 -8 -24 -6 -24 9 0 24 -37 34 -61 17 -10 -7 -28 -24 -39 -39 -12 -15
-25 -27 -30 -27 -4 0 -37 17 -71 39 -35 21 -75 42 -89 46 -14 4 -32 13 -40 20
-47 41 -283 88 -383 77z"/>
<path d="M2318 3553 c-26 -3 -38 -9 -38 -20 0 -13 9 -15 61 -9 69 7 88 14 68
27 -14 9 -23 9 -91 2z"/>
<path d="M2190 3537 c-3 -3 -27 -7 -55 -10 -94 -11 -125 -19 -125 -33 0 -17
58 -19 104 -4 17 5 50 13 74 17 46 8 61 26 27 31 -12 2 -23 1 -25 -1z"/>
<path d="M2310 3433 c-97 -17 -207 -75 -115 -60 33 5 34 4 24 -14 -6 -11 -17
-23 -25 -26 -7 -3 -11 -9 -8 -14 3 -5 -8 -32 -25 -59 -30 -48 -30 -52 -15 -75
9 -14 24 -26 33 -26 63 -6 65 -5 109 61 23 35 42 72 42 82 0 10 4 18 9 18 5 0
12 10 17 23 5 14 9 -16 11 -89 4 -126 5 -128 96 -133 39 -2 47 0 48 16 0 10 2
66 2 125 1 60 3 108 4 108 1 0 9 -16 19 -35 9 -19 42 -62 73 -96 51 -56 60
-62 97 -62 23 0 47 3 53 7 16 10 14 51 -3 65 -8 7 -17 23 -20 36 -4 14 -13 25
-21 25 -7 0 -23 13 -35 30 l-21 29 33 -11 c18 -6 38 -14 43 -18 51 -39 135
-65 135 -42 0 4 -21 18 -47 31 -27 13 -55 28 -63 32 -26 15 -64 31 -85 35 -11
2 -31 7 -45 10 -93 23 -263 38 -320 27z m-65 -223 c-14 -27 -35 -41 -35 -23 0
7 41 53 47 53 2 0 -3 -13 -12 -30z m475 21 c0 -11 -31 -24 -39 -16 -3 3 1 10
9 15 19 12 30 12 30 1z m-280 -71 c0 -5 -4 -10 -10 -10 -5 0 -10 5 -10 10 0 6
5 10 10 10 6 0 10 -4 10 -10z"/>
<path d="M3200 3363 c0 -6 9 -21 20 -34 15 -18 19 -20 20 -8 0 9 -9 24 -20 34
-11 10 -20 13 -20 8z"/>
<path d="M1965 3310 l-70 -28 -17 21 c-14 18 -19 20 -30 9 -11 -11 -10 -15 2
-25 18 -14 15 -43 -5 -51 -10 -3 -12 0 -8 11 5 13 2 15 -18 10 -13 -4 -32 -7
-41 -7 -10 0 -18 -9 -20 -22 -4 -28 -47 -38 -60 -14 -14 24 -29 9 -22 -22 10
-44 27 -56 55 -41 15 7 19 14 11 17 -6 2 -9 8 -6 13 4 6 11 6 20 -1 10 -9 20
-7 41 10 24 19 29 19 39 6 9 -14 13 -14 30 -1 18 14 18 14 -3 10 -20 -3 -21
-2 -10 16 6 10 19 19 27 19 16 0 168 75 185 91 18 18 -31 8 -100 -21z m-155
-84 c0 -8 -7 -16 -15 -20 -15 -5 -21 14 -8 27 11 12 23 8 23 -7z"/>
<path d="M3170 3321 c0 -12 42 -42 49 -36 5 5 -34 45 -44 45 -3 0 -5 -4 -5 -9z"/>
<path d="M2120 3300 c-8 -5 -10 -10 -5 -10 6 0 17 5 25 10 8 5 11 10 5 10 -5
0 -17 -5 -25 -10z"/>
<path d="M1728 3287 c-16 -6 -28 -17 -28 -24 0 -11 6 -10 30 2 17 9 30 20 30
25 0 6 -1 10 -2 9 -2 -1 -15 -6 -30 -12z"/>
<path d="M2060 3280 c0 -5 -9 -10 -19 -10 -11 0 -23 -4 -26 -10 -8 -13 8 -13
40 2 25 11 34 28 15 28 -5 0 -10 -4 -10 -10z"/>
<path d="M2775 3260 c3 -5 8 -10 11 -10 2 0 4 5 4 10 0 6 -5 10 -11 10 -5 0
-7 -4 -4 -10z"/>
<path d="M2800 3259 c0 -11 30 -23 78 -32 30 -6 32 -5 17 9 -8 9 -22 13 -30
10 -8 -3 -17 -1 -20 3 -7 13 -45 21 -45 10z"/>
<path d="M1920 3238 c0 -5 11 -8 24 -8 14 0 27 3 29 8 3 4 -8 7 -24 7 -16 0
-29 -3 -29 -7z"/>
<path d="M2940 3206 c0 -2 7 -9 15 -16 12 -10 15 -10 15 4 0 9 -7 16 -15 16
-8 0 -15 -2 -15 -4z"/>
<path d="M1796 3159 c-11 -10 -15 -19 -9 -19 5 0 18 9 28 20 23 26 6 25 -19
-1z"/>
<path d="M1646 3097 c-35 -30 -37 -34 -20 -41 10 -4 15 -4 11 0 -4 4 7 23 25
41 41 42 34 42 -16 0z"/>
<path d="M1690 3080 c0 -5 7 -7 15 -4 8 4 15 8 15 10 0 2 -7 4 -15 4 -8 0 -15
-4 -15 -10z"/>
<path d="M3215 3030 c10 -11 20 -20 22 -20 2 0 -2 9 -9 20 -7 11 -17 20 -22
20 -5 0 -1 -9 9 -20z"/>
<path d="M2689 2970 c-69 -12 -126 -70 -115 -114 9 -38 68 -54 141 -39 67 14
97 10 168 -19 66 -29 70 -15 5 18 -47 25 -65 28 -162 30 -134 3 -154 15 -107
62 63 62 188 64 359 5 67 -23 96 -88 52 -115 -25 -16 -26 -28 -1 -28 11 0 23
12 31 29 28 69 -33 136 -145 159 -67 14 -182 20 -226 12z"/>
<path d="M2095 2965 c-5 -2 -50 -9 -100 -16 -108 -15 -156 -41 -185 -101 -24
-50 -25 -62 -4 -93 14 -21 24 -25 70 -25 41 0 65 7 105 31 59 34 85 40 180 43
71 1 93 12 104 53 7 30 -13 57 -65 83 -36 17 -87 30 -105 25z m114 -54 c68
-49 9 -103 -89 -82 -49 10 -115 -4 -180 -38 -30 -16 -66 -27 -80 -26 -14 2
-28 4 -31 4 -18 2 -17 37 1 66 29 46 64 67 150 86 101 23 188 19 229 -10z"/>
<path d="M1979 2887 c-42 -28 -51 -57 -17 -57 13 1 47 11 76 24 50 21 53 24
37 39 -23 23 -56 21 -96 -6z"/>
<path d="M2767 2903 c-13 -12 -7 -21 25 -34 33 -14 97 -13 111 1 16 15 -37 40
-84 40 -25 0 -49 -3 -52 -7z"/>
<path d="M2345 2804 c-27 -8 -91 -35 -142 -60 -50 -25 -107 -48 -127 -51 -40
-6 -44 -30 -5 -25 48 5 109 25 120 38 6 8 16 14 21 14 6 0 22 8 36 19 49 34
237 65 265 43 23 -17 167 -62 200 -61 37 0 27 6 -58 32 -27 8 -83 27 -123 41
-83 29 -116 31 -187 10z"/>
<path d="M2760 2728 c0 -17 32 -22 140 -20 174 3 196 -17 141 -130 -35 -71
-37 -92 -13 -129 9 -14 27 -41 39 -60 13 -19 23 -45 23 -58 0 -32 -70 -98
-135 -130 -28 -13 -58 -27 -67 -32 -10 -5 -27 -9 -37 -9 -11 0 -23 -5 -26 -10
-4 -6 -10 -8 -15 -5 -5 3 -20 1 -34 -5 -58 -22 -456 -35 -561 -18 -135 21
-222 41 -262 58 -54 24 -86 82 -85 157 0 56 -13 71 -24 27 -11 -43 2 -117 26
-155 31 -48 81 -78 143 -89 29 -5 68 -14 88 -20 36 -10 36 -10 31 -58 -8 -92
49 -162 149 -181 35 -6 78 -16 95 -21 17 -6 89 -10 160 -10 120 0 134 2 182
26 92 46 158 151 134 214 -7 19 -6 29 6 40 9 8 21 15 27 15 23 0 129 61 172
99 24 21 50 54 59 74 13 33 13 39 -6 76 -32 64 -54 100 -64 107 -4 4 -2 24 5
45 7 22 14 41 14 44 0 3 9 19 18 37 9 18 17 41 17 52 0 24 -53 70 -83 73 -69
4 -257 2 -257 -4z m60 -669 c0 -67 -44 -131 -123 -179 -60 -37 -367 -22 -450
22 -51 27 -77 71 -77 134 l0 47 53 -7 c28 -3 91 -6 139 -6 103 0 103 0 107
-132 1 -54 26 -68 37 -22 8 33 -2 124 -16 138 -5 5 -10 12 -10 16 0 3 52 5
116 5 64 0 118 3 121 8 2 4 27 7 54 6 47 -2 49 -3 49 -30z"/>
<path d="M2527 2723 c-13 -12 -7 -53 7 -53 14 0 26 21 26 46 0 14 -21 19 -33
7z"/>
<path d="M2320 2706 c0 -17 39 -48 52 -40 16 10 8 24 -22 39 -26 13 -30 14
-30 1z"/>
<path d="M1800 2678 c-28 -19 -36 -31 -38 -60 -4 -45 18 -90 58 -118 17 -12
29 -24 27 -26 -7 -8 20 -78 32 -82 21 -7 11 58 -15 98 -15 22 -29 40 -33 40
-3 0 -16 15 -29 34 -53 77 21 119 165 95 18 -3 33 2 33 10 0 5 -17 12 -37 15
-124 18 -127 18 -163 -6z"/>
<path d="M3286 2331 c-11 -16 6 -41 31 -47 34 -9 35 -3 2 29 -15 15 -30 23
-33 18z"/>
<path d="M3250 2285 c7 -8 19 -15 27 -15 13 0 13 3 3 15 -7 8 -19 15 -27 15
-13 0 -13 -3 -3 -15z"/>
<path d="M1530 2230 c-22 -14 -3 -25 36 -21 19 1 34 -2 34 -8 0 -6 9 -11 20
-11 29 0 24 23 -7 38 -32 14 -62 15 -83 2z"/>
</g>
</svg>
